<svg width="401" height="401" viewBox="0 0 401 401" fill="none" xmlns="http://www.w3.org/2000/svg">
<ellipse cx="48" cy="281.398" rx="37" ry="37.3979" fill="#1B448D" fill-opacity="0.93"/>
<path d="M77 119.398C77 135.715 63.9358 148.796 48 148.796C32.0642 148.796 19 135.715 19 119.398C19 103.081 32.0642 90 48 90C63.9358 90 77 103.081 77 119.398Z" stroke="#1B448D" stroke-width="16"/>
<ellipse cx="200" cy="281.398" rx="37" ry="37.3979" fill="#1B448D" fill-opacity="0.93"/>
<path d="M229 119.398C229 135.715 215.936 148.796 200 148.796C184.064 148.796 171 135.715 171 119.398C171 103.081 184.064 90 200 90C215.936 90 229 103.081 229 119.398Z" stroke="#1B448D" stroke-width="16"/>
<path d="M381 281.398C381 297.715 367.936 310.796 352 310.796C336.064 310.796 323 297.715 323 281.398C323 265.081 336.064 252 352 252C367.936 252 381 265.081 381 281.398Z" stroke="#1B448D" stroke-width="16"/>
<path d="M381 119.398C381 135.715 367.936 148.796 352 148.796C336.064 148.796 323 135.715 323 119.398C323 103.081 336.064 90 352 90C367.936 90 381 103.081 381 119.398Z" stroke="#1B448D" stroke-width="16"/>
<path d="M77 159C123.833 190.833 200 274.5 323 159" stroke="#1B448D" stroke-opacity="0.93" stroke-width="20"/>
<path d="M352 171L352 229" stroke="#1B448D" stroke-opacity="0.93" stroke-width="20"/>
<path d="M48 171L48 229" stroke="#1B448D" stroke-opacity="0.93" stroke-width="20"/>
</svg>
