<?xml version="1.0" standalone="no"?>
<!DOCTYPE svg PUBLIC "-//W3C//DTD SVG 20010904//EN"
 "http://www.w3.org/TR/2001/REC-SVG-20010904/DTD/svg10.dtd">
<svg version="1.0" xmlns="http://www.w3.org/2000/svg"
 width="922.000000pt" height="922.000000pt" viewBox="0 0 922.000000 922.000000"
 preserveAspectRatio="xMidYMid meet">
<metadata>
Created by potrace 1.14, written by Peter Selinger 2001-2017
</metadata>
<g transform="translate(0.000000,922.000000) scale(0.100000,-0.100000)"
fill="#000000" stroke="none">
<path d="M1239 9206 c-2 -2 -28 -7 -58 -11 -30 -4 -63 -9 -75 -11 -12 -3 -32
-7 -46 -10 -164 -33 -409 -152 -543 -264 -42 -35 -166 -158 -204 -203 -43 -51
-117 -163 -140 -212 -10 -22 -20 -42 -23 -45 -3 -3 -14 -25 -24 -50 -51 -125
-65 -167 -59 -174 4 -3 1 -6 -4 -6 -6 0 -10 -8 -9 -17 2 -9 -3 -35 -9 -58 -7
-22 -16 -62 -21 -90 -11 -61 -12 -6837 -1 -6880 10 -41 20 -97 21 -115 1 -8 5
-21 9 -28 5 -6 5 -12 1 -12 -3 0 -1 -7 6 -15 7 -8 10 -15 7 -15 -8 0 49 -153
85 -227 26 -55 111 -191 150 -239 33 -42 207 -214 216 -214 6 0 12 -4 14 -8 8
-21 197 -139 222 -140 5 0 12 -5 16 -11 3 -6 17 -14 31 -16 13 -3 25 -9 27
-15 2 -5 10 -10 17 -10 8 0 24 -4 37 -9 13 -5 25 -9 28 -9 3 -1 22 -8 43 -17
21 -9 42 -13 47 -10 6 4 10 2 10 -3 0 -5 6 -9 13 -10 28 -3 66 -10 84 -16 10
-3 38 -9 63 -13 57 -10 6797 -11 6866 -1 81 12 216 45 280 70 32 12 61 23 64
23 37 8 260 138 268 157 2 5 8 8 13 8 18 0 174 147 244 230 42 49 95 126 95
137 0 5 8 18 18 29 30 33 118 233 137 309 1 6 4 17 7 25 6 15 21 89 35 170 9
48 10 6831 1 6865 -2 11 -11 53 -18 93 -7 39 -17 72 -22 72 -6 0 -8 6 -5 13 5
16 -14 75 -58 172 -10 22 -18 43 -17 48 1 4 -2 7 -8 7 -5 0 -10 7 -10 15 0 8
-16 39 -35 69 -19 30 -35 58 -35 61 0 4 -6 12 -12 20 -7 7 -22 25 -33 41 -51
71 -224 254 -240 254 -3 0 -31 20 -62 44 -65 48 -174 112 -243 140 -110 45
-158 62 -205 71 -22 5 -42 9 -45 10 -19 5 -71 16 -105 22 -41 8 -6798 16
-6806 9z"/>
</g>
</svg>
